# Blender 4.0.2
# www.blender.org
mtllib B1.mtl
o Cube
v -2.557579 -0.000314 2.795577
v 1.526767 0.056245 0.961050
v -2.603391 4.911005 2.841389
v 1.526767 0.056245 -0.485054
v -2.557579 -0.000314 -2.319581
v -2.603391 4.911005 -2.365393
v 2.557579 -0.000314 2.795577
v 2.603391 4.911005 2.841389
v 2.557579 -0.000314 -2.319581
v 2.603391 4.911005 -2.365393
v -2.353739 0.203526 2.591737
v -2.353739 4.911005 2.591737
v -2.353739 0.203526 -2.115741
v -2.353739 4.911005 -2.115741
v 2.353739 0.203526 2.591737
v 2.353739 4.911005 2.591737
v 2.353739 0.203526 -2.115741
v 2.353739 4.911005 -2.115741
v 2.581478 2.561769 -0.485054
v 2.558107 0.056245 0.961050
v 2.581478 2.561769 0.961050
v 2.558107 0.056245 -0.485054
v 2.353739 0.203526 0.961050
v 2.353739 2.561769 0.961050
v 2.353739 0.203526 -0.485054
v 2.353739 2.561769 -0.485054
v 0.147337 0.203526 0.961050
v 0.147337 0.203526 -0.485054
vn -1.0000 -0.0093 -0.0000
vn -0.0000 -0.0093 -1.0000
vn 1.0000 -0.0093 -0.0000
vn -0.0000 -0.0093 1.0000
vn -0.0000 -1.0000 -0.0000
vn 1.0000 -0.0000 -0.0000
vn -0.0000 -0.0000 1.0000
vn -1.0000 -0.0000 -0.0000
vn -0.0000 -0.0000 -1.0000
vn -0.0000 1.0000 -0.0000
vn 0.1062 0.9943 -0.0000
vt 0.625000 0.000000
vt 0.375000 0.250000
vt 0.375000 0.000000
vt 0.625000 0.250000
vt 0.375000 0.500000
vt 0.625000 0.500000
vt 0.625000 0.750000
vt 0.505417 0.589991
vt 0.375000 0.750000
vt 0.377879 0.589665
vt 0.377879 0.660335
vt 0.375000 1.000000
vt 0.125000 0.750000
vt 0.125000 0.500000
vt 0.500239 0.663399
vt 0.331082 0.586601
vt 0.625000 1.000000
vt 0.389696 0.250000
vt 0.389696 0.000000
vt 0.389696 0.392965
vt 0.375000 0.428296
vt 0.389696 0.857034
vt 0.625000 0.817663
vt 0.375000 0.821704
vt 0.303296 0.500000
vt 0.692663 0.500000
vt 0.732034 0.750000
vt 0.732034 0.500000
vt 0.505417 0.660009
vt 0.375000 0.663399
vt 0.500239 0.586601
vt 0.375000 0.586601
vt 0.331082 0.663399
vt 0.625000 0.432337
vt 0.625000 0.392965
vt 0.625000 0.857035
vt 0.389696 1.000000
vt 0.303296 0.750000
vt 0.692663 0.750000
s 0
usemtl 
f 3/1/1 5/2/1 1/3/1
f 6/4/2 9/5/2 5/2/2
f 10/6/3 8/7/3 19/8/3
f 7/9/3 22/10/3 20/11/3
f 8/7/4 1/12/4 7/9/4
f 9/5/5 1/13/5 5/14/5
f 13/2/6 12/1/6 11/3/6
f 17/5/7 14/4/7 13/2/7
f 16/7/8 18/6/8 24/15/8
f 11/12/9 16/7/9 15/9/9
f 13/14/10 11/13/10 28/16/10
f 3/1/10 14/4/10 6/4/10
f 6/4/10 18/6/10 10/6/10
f 10/6/10 16/7/10 8/7/10
f 8/7/10 12/17/10 3/17/10
f 3/1/1 6/4/1 5/2/1
f 6/4/2 10/6/2 9/5/2
f 19/8/3 22/10/3 9/5/3
f 8/7/3 7/9/3 21/29/3
f 7/9/3 20/11/3 21/29/3
f 19/8/3 9/5/3 10/6/3
f 8/7/3 21/29/3 19/8/3
f 7/9/3 9/5/3 22/10/3
f 8/7/4 3/17/4 1/12/4
f 9/5/5 7/9/5 1/13/5
f 13/2/6 14/4/6 12/1/6
f 17/5/7 18/6/7 14/4/7
f 24/15/8 23/30/8 15/9/8
f 18/6/8 17/5/8 26/31/8
f 17/5/8 25/32/8 26/31/8
f 24/15/8 15/9/8 16/7/8
f 18/6/8 26/31/8 24/15/8
f 11/12/9 12/17/9 16/7/9
f 28/16/10 25/32/10 17/5/10
f 11/13/10 15/9/10 27/33/10
f 15/9/10 23/30/10 27/33/10
f 28/16/10 17/5/10 13/14/10
f 11/13/10 27/33/10 28/16/10
f 3/1/10 12/1/10 14/4/10
f 6/4/10 14/4/10 18/6/10
f 10/6/10 18/6/10 16/7/10
f 8/7/10 16/7/10 12/17/10
usemtl 
f 2/3/11 28/18/11 27/19/11
f 25/20/7 4/2/7 22/21/7
f 23/22/9 21/23/9 20/24/9
f 2/13/10 22/25/10 4/14/10
f 19/26/5 24/27/5 26/28/5
f 2/3/11 4/2/11 28/18/11
f 25/20/7 28/18/7 4/2/7
f 22/21/7 19/34/7 25/20/7
f 19/34/7 26/35/7 25/20/7
f 23/22/9 24/36/9 21/23/9
f 20/24/9 2/12/9 23/22/9
f 2/12/9 27/37/9 23/22/9
f 2/13/10 20/38/10 22/25/10
f 19/26/5 21/39/5 24/27/5
