# Blender 4.0.2
# www.blender.org
mtllib B2.mtl
o Cube.001
v 2.557715 -0.000314 7.315721
v 2.557470 -0.000314 11.922722
v -1.526729 0.056245 9.150030
v 2.603284 4.911005 11.876912
v 2.603529 4.911005 7.269911
v -1.526806 0.056245 10.596134
v -2.557688 -0.000314 11.922449
v -2.557443 -0.000314 7.315448
v -2.603252 4.911005 7.269634
v -2.603498 4.911005 11.876635
v 2.353865 0.203526 7.519549
v 2.353865 4.911005 7.519549
v -2.353614 0.203526 7.519299
v -2.353614 4.911005 7.519299
v -2.581516 2.561769 10.596078
v -2.558068 0.056245 9.149975
v -2.581439 2.561769 9.149974
v -2.558145 0.056245 10.596079
v -2.353701 0.203526 9.149986
v -2.353701 2.561769 9.149986
v -2.353778 0.203526 10.596089
v -2.353778 2.561769 10.596089
v -0.147298 0.203526 9.150104
v -0.147375 0.203526 10.596207
v -2.558059 0.039385 11.922079
v -2.564395 0.718741 11.915741
v -2.561012 0.354530 12.176527
v -2.557775 0.007520 12.176528
v -2.596589 4.170290 11.883544
v 2.343269 0.203526 11.920809
v 1.883966 0.203526 11.920784
v -1.939519 0.203526 11.920581
v -2.049531 -0.000314 11.922476
v -2.353848 0.203526 11.920559
v -2.353848 0.652424 11.916371
v -2.353846 4.645559 11.879124
v -2.353846 4.413282 11.881290
v -2.353846 4.673429 11.878864
v 2.562021 0.487593 11.918171
v 2.353630 0.203526 11.920809
v 2.353630 0.512628 11.917926
v 2.371266 4.911005 11.876900
v -2.573291 4.911005 11.876637
v -2.353846 4.911005 11.876648
v 2.353633 4.911005 11.876899
v -2.557579 -0.000314 15.941505
v -2.557579 -0.000314 11.334504
v 1.526767 0.056245 14.106977
v -2.603391 4.911005 11.380316
v -2.603391 4.911005 15.987317
v 1.526767 0.056245 12.660874
v 2.557579 -0.000314 11.334504
v 2.557579 -0.000314 15.941505
v 2.603391 4.911005 15.987318
v 2.603391 4.911005 11.380316
v -2.353740 0.203526 15.737665
v -2.353740 4.911005 15.737665
v 2.353740 0.203526 15.737666
v 2.353740 4.911005 15.737666
v 2.581478 2.561769 12.660874
v 2.558107 0.056245 14.106977
v 2.581478 2.561769 14.106977
v 2.558107 0.056245 12.660874
v 2.353740 0.203526 14.106977
v 2.353740 2.561769 14.106977
v 2.353740 0.203526 12.660874
v 2.353740 2.561769 12.660874
v 0.147337 0.203526 14.106977
v 0.147337 0.203526 12.660874
v 2.557950 0.039385 11.334874
v 2.564286 0.718741 11.341211
v 2.560889 0.354530 11.080425
v 2.557652 0.007520 11.080425
v 2.596482 4.170290 11.373406
v -2.343378 0.203526 11.336406
v -1.884075 0.203526 11.336406
v 1.939410 0.203526 11.336406
v 2.049422 -0.000314 11.334504
v 2.353739 0.203526 11.336406
v 2.353739 0.652424 11.340592
v 2.353740 4.645559 11.377840
v 2.353740 4.413282 11.375673
v 2.353740 4.673429 11.378099
v -2.562130 0.487593 11.339055
v -2.353740 0.203526 11.336406
v -2.353739 0.512628 11.339289
v -2.371373 4.911005 11.380316
v 2.573185 4.911005 11.380316
v 2.353739 4.911005 11.380316
v -2.353740 4.911005 11.380316
v -2.603252 7.372767 7.269634
v -2.603498 7.372767 11.876635
v -2.353614 7.372767 7.519299
v 2.603529 7.372767 7.269911
v 2.371266 7.372767 11.876900
v -2.573291 7.372767 11.876637
v 2.353865 7.372767 7.519549
v -2.353846 7.372767 11.876648
v 2.603284 7.372767 11.876912
v -2.603252 9.614123 7.269634
v -2.603498 9.614123 11.876635
v -2.353614 9.614123 7.519299
v 2.603529 9.614123 7.269911
v 2.371266 9.614123 11.876900
v -2.573291 9.614123 11.876637
v 2.353865 9.614123 7.519549
v -2.353846 9.614123 11.876648
v 2.603284 9.614123 11.876912
v 1.277073 5.268502 7.519492
v -1.552623 5.268502 7.519341
v 1.277073 7.372767 7.519492
v -1.552623 7.372767 7.519341
v 1.277073 7.372767 7.269840
v -1.552623 8.098198 7.269690
v -1.552623 7.372767 7.269690
v 1.277073 8.098198 7.269840
v 1.277073 5.268502 7.269840
v -1.552623 5.268502 7.269690
v 1.277073 8.098198 7.519492
v -1.552623 8.098198 7.519341
v 0.055522 0.125010 8.506612
v 0.055522 2.031325 8.506612
v 0.241474 0.125010 8.524927
v 0.241474 2.031325 8.524927
v 0.420280 0.125010 8.579167
v 0.420280 2.031325 8.579167
v 0.585068 0.125010 8.667248
v 0.585068 2.031325 8.667248
v 0.729507 0.125010 8.785786
v 0.729507 2.031325 8.785786
v 0.848044 0.125010 8.930223
v 0.848044 2.031325 8.930223
v 0.936125 0.125010 9.095012
v 0.936125 2.031325 9.095012
v 0.990366 0.125010 9.273818
v 0.990366 2.031325 9.273818
v 1.008680 0.125010 9.459770
v 1.008680 2.031325 9.459770
v 0.990365 0.125010 9.645721
v 0.990365 2.031325 9.645721
v 0.936125 0.125010 9.824528
v 0.936125 2.031325 9.824528
v 0.848044 0.125010 9.989316
v 0.848044 2.031325 9.989316
v 0.729507 0.125010 10.133754
v 0.729507 2.031325 10.133754
v 0.585068 0.125010 10.252292
v 0.585068 2.031325 10.252292
v 0.420280 0.125010 10.340372
v 0.420280 2.031325 10.340372
v 0.241474 0.125010 10.394612
v 0.241474 2.031325 10.394612
v 0.055522 0.125010 10.412928
v 0.055522 2.031325 10.412928
v -0.130429 0.125010 10.394612
v -0.130429 2.031325 10.394612
v -0.309235 0.125010 10.340372
v -0.309235 2.031325 10.340372
v -0.474024 0.125010 10.252292
v -0.474024 2.031325 10.252292
v -0.618462 0.125010 10.133754
v -0.618462 2.031325 10.133754
v -0.736999 0.125010 9.989316
v -0.736999 2.031325 9.989316
v -0.825080 0.125010 9.824528
v -0.825080 2.031325 9.824528
v -0.879321 0.125010 9.645721
v -0.879321 2.031325 9.645721
v -0.897635 0.125010 9.459769
v -0.897635 2.031325 9.459769
v -0.879320 0.125010 9.273818
v -0.879320 2.031325 9.273818
v -0.825080 0.125010 9.095012
v -0.825080 2.031325 9.095012
v -0.736999 0.125010 8.930223
v -0.736999 2.031325 8.930223
v -0.618462 0.125010 8.785786
v -0.618462 2.031325 8.785786
v -0.474024 0.125010 8.667248
v -0.474024 2.031325 8.667248
v -0.309235 0.125010 8.579166
v -0.309235 2.031325 8.579166
v -0.130429 0.125010 8.524927
v -0.130429 2.031325 8.524927
v 0.241474 4.175917 8.524927
v 0.055523 4.175917 8.506612
v 0.420280 4.175917 8.579167
v 0.585069 4.175917 8.667248
v 0.729507 4.175917 8.785786
v 0.848044 4.175917 8.930223
v 0.936125 4.175917 9.095012
v 0.990366 4.175917 9.273818
v 1.008680 4.175917 9.459770
v 0.990366 4.175917 9.645721
v 0.936125 4.175917 9.824528
v 0.848044 4.175917 9.989316
v 0.729507 4.175917 10.133754
v 0.585069 4.175917 10.252292
v 0.420280 4.175917 10.340372
v 0.241474 4.175917 10.394612
v 0.055523 4.175917 10.412928
v -0.130429 4.175917 10.394612
v -0.309235 4.175917 10.340372
v -0.474023 4.175917 10.252292
v -0.618462 4.175917 10.133754
v -0.736999 4.175917 9.989316
v -0.825080 4.175917 9.824528
v -0.879320 4.175917 9.645721
v -0.897635 4.175917 9.459769
v -0.879320 4.175917 9.273818
v -0.825080 4.175917 9.095012
v -0.736999 4.175917 8.930223
v -0.618462 4.175917 8.785786
v -0.474024 4.175917 8.667248
v -0.309235 4.175917 8.579166
v -0.130429 4.175917 8.524927
v 0.241474 5.066159 8.524927
v 0.055522 5.066159 8.506612
v 0.420280 5.066159 8.579167
v 0.585068 5.066159 8.667248
v 0.729507 5.066159 8.785786
v 0.848044 5.066159 8.930223
v 0.936125 5.066159 9.095012
v 0.990365 5.066159 9.273818
v 1.008680 5.066159 9.459770
v 0.990365 5.066159 9.645721
v 0.936125 5.066159 9.824528
v 0.848044 5.066159 9.989316
v 0.729507 5.066159 10.133754
v 0.585068 5.066159 10.252292
v 0.420280 5.066159 10.340372
v 0.241474 5.066159 10.394612
v 0.055522 5.066159 10.412928
v -0.130429 5.066159 10.394612
v -0.309235 5.066159 10.340372
v -0.474024 5.066159 10.252292
v -0.618462 5.066159 10.133754
v -0.736999 5.066159 9.989316
v -0.825080 5.066159 9.824528
v -0.879321 5.066159 9.645721
v -0.897635 5.066159 9.459769
v -0.879321 5.066159 9.273818
v -0.825080 5.066159 9.095012
v -0.736999 5.066159 8.930223
v -0.618462 5.066159 8.785786
v -0.474024 5.066159 8.667248
v -0.309235 5.066159 8.579166
v -0.130429 5.066159 8.524927
v 0.148498 5.066159 8.515769
v 0.330877 5.066159 8.552047
v 0.502674 5.066159 8.623207
v 0.657287 5.066159 8.726517
v 0.788775 5.066159 8.858005
v 0.892085 5.066159 9.012618
v 0.963245 5.066159 9.184415
v 0.999523 5.066159 9.366794
v 0.999523 5.066159 9.552746
v 0.963245 5.066159 9.735125
v 0.892085 5.066159 9.906921
v 0.788775 5.066159 10.061535
v 0.657287 5.066159 10.193023
v 0.502674 5.066159 10.296332
v 0.330877 5.066159 10.367493
v 0.148498 5.066159 10.403770
v -0.037454 5.066159 10.403770
v -0.219832 5.066159 10.367493
v -0.391630 5.066159 10.296332
v -0.546243 5.066159 10.193023
v -0.677731 5.066159 10.061535
v -0.781040 5.066159 9.906921
v -0.852201 5.066159 9.735125
v -0.888478 5.066159 9.552746
v -0.888478 5.066159 9.366794
v -0.852201 5.066159 9.184415
v -0.781040 5.066159 9.012618
v -0.677731 5.066159 8.858005
v -0.546243 5.066159 8.726517
v -0.391629 5.066159 8.623207
v -0.219832 5.066159 8.552047
v -0.037454 5.066159 8.515769
v 2.501694 4.763076 8.084878
v 2.501694 4.928513 8.106708
v 1.201060 4.763076 8.084878
v 1.201060 4.928513 8.106709
v 2.501695 4.851939 7.411436
v 2.501695 5.017375 7.433266
v 1.201060 4.851939 7.411436
v 1.201060 5.017375 7.433266
v 2.501695 3.927293 8.933829
v 2.501695 4.092729 8.955660
v 1.201060 3.927293 8.933830
v 1.201060 4.092729 8.955660
v 2.501695 4.016156 8.260387
v 2.501695 4.181592 8.282217
v 1.201060 4.016156 8.260387
v 1.201060 4.181592 8.282217
v 2.501695 3.091511 9.782782
v 2.501695 3.256947 9.804611
v 1.201060 3.091511 9.782781
v 1.201060 3.256947 9.804611
v 2.501695 3.180373 9.109339
v 2.501695 3.345809 9.131168
v 1.201060 3.180373 9.109339
v 1.201060 3.345809 9.131168
v 2.501695 2.255728 10.631733
v 2.501695 2.421164 10.653563
v 1.201060 2.255728 10.631733
v 1.201060 2.421164 10.653563
v 2.501695 2.344590 9.958290
v 2.501695 2.510026 9.980120
v 1.201060 2.344590 9.958290
v 1.201060 2.510026 9.980120
v 2.501695 1.419944 11.480684
v 2.501695 1.585381 11.502514
v 1.201060 1.419944 11.480684
v 1.201060 1.585381 11.502514
v 2.501695 1.508807 10.807241
v 2.501695 1.674243 10.829071
v 1.201060 1.508807 10.807241
v 1.201060 1.674243 10.829072
v 2.501695 0.584162 12.329636
v 2.501695 0.749598 12.351465
v 1.201060 0.584162 12.329636
v 1.201060 0.749598 12.351465
v 2.501695 0.673024 11.656193
v 2.501695 0.838460 11.678022
v 1.201060 0.673024 11.656193
v 1.201060 0.838460 11.678022
vn 1.0000 -0.0093 0.0001
vn -1.0000 -0.0093 -0.0001
vn 0.0001 -0.0093 -1.0000
vn -0.0000 -1.0000 -0.0000
vn -1.0000 -0.0000 -0.0001
vn 1.0000 -0.0000 0.0001
vn -0.0001 -0.0000 1.0000
vn -0.0000 1.0000 -0.0000
vn 0.7071 -0.0000 -0.7071
vn -0.1062 0.9943 -0.0000
vn 0.0001 -0.0000 -1.0000
vn -1.0000 -0.0000 0.0040
vn -0.0001 0.0093 1.0000
vn 1.0000 0.0093 0.0001
vn -1.0000 -0.0093 -0.0000
vn 1.0000 -0.0093 -0.0000
vn -0.0000 -0.0093 1.0000
vn 1.0000 -0.0000 -0.0000
vn -1.0000 -0.0000 -0.0000
vn -0.0000 -0.0000 -1.0000
vn 0.1062 0.9943 -0.0000
vn -0.0000 -0.0000 1.0000
vn -0.0000 0.0093 -1.0000
vn -1.0000 0.0093 -0.0000
vn 0.7071 -0.0000 0.7071
vn -0.7071 -0.0000 0.7071
vn -0.7071 -0.0000 -0.7071
vn 0.9984 -0.0000 0.0573
vn -0.9987 -0.0000 -0.0504
vn 0.0980 -0.0000 -0.9952
vn 0.2903 -0.0000 -0.9569
vn 0.4714 -0.0000 -0.8819
vn 0.6344 -0.0000 -0.7730
vn 0.7730 -0.0000 -0.6344
vn 0.8819 -0.0000 -0.4714
vn 0.9569 -0.0000 -0.2903
vn 0.9952 -0.0000 -0.0980
vn 0.9952 -0.0000 0.0980
vn 0.9569 -0.0000 0.2903
vn 0.8819 -0.0000 0.4714
vn 0.7730 -0.0000 0.6344
vn 0.6344 -0.0000 0.7730
vn 0.4714 -0.0000 0.8819
vn 0.2903 -0.0000 0.9569
vn 0.0980 -0.0000 0.9952
vn -0.0980 -0.0000 0.9952
vn -0.2903 -0.0000 0.9569
vn -0.4714 -0.0000 0.8819
vn -0.6344 -0.0000 0.7730
vn -0.7730 -0.0000 0.6344
vn -0.8819 -0.0000 0.4714
vn -0.9569 -0.0000 0.2903
vn -0.9952 -0.0000 0.0980
vn -0.9952 -0.0000 -0.0980
vn -0.9569 -0.0000 -0.2903
vn -0.8819 -0.0000 -0.4714
vn -0.7730 -0.0000 -0.6344
vn -0.6344 -0.0000 -0.7730
vn -0.4714 -0.0000 -0.8819
vn -0.2903 -0.0000 -0.9569
vn -0.0980 -0.0000 -0.9952
vn -0.0000 -0.1308 0.9914
vn -0.0000 0.1308 -0.9914
vn -0.0000 -0.9914 -0.1308
vn -0.0000 0.9914 0.1308
vt 0.375000 0.000000
vt 0.399836 0.225164
vt 0.375000 0.225164
vt 0.505417 0.589991
vt 0.625000 0.528798
vt 0.625000 0.750000
vt 0.375000 0.750000
vt 0.377879 0.589665
vt 0.377879 0.660335
vt 0.375000 1.000000
vt 0.125000 0.524836
vt 0.350164 0.524836
vt 0.125000 0.750000
vt 0.391415 0.233585
vt 0.625000 0.000000
vt 0.612383 0.518477
vt 0.500239 0.663399
vt 0.163699 0.516262
vt 0.125854 0.516262
vt 0.625000 1.000000
vt 0.625000 0.988860
vt 0.389696 0.250000
vt 0.389696 0.000000
vt 0.389696 0.392965
vt 0.375000 0.250000
vt 0.375000 0.428296
vt 0.389696 0.857034
vt 0.625000 0.817663
vt 0.375000 0.821704
vt 0.303296 0.500000
vt 0.125000 0.500000
vt 0.692663 0.500000
vt 0.732034 0.750000
vt 0.732034 0.500000
vt 0.625000 0.221202
vt 0.375399 0.512418
vt 0.377021 0.524858
vt 0.505417 0.660009
vt 0.587296 0.528374
vt 0.411602 0.525256
vt 0.375000 0.524836
vt 0.625000 0.231406
vt 0.375000 0.663399
vt 0.500239 0.586601
vt 0.598567 0.518348
vt 0.398840 0.516485
vt 0.375000 0.586601
vt 0.375000 0.516262
vt 0.366753 0.516262
vt 0.331082 0.663399
vt 0.331082 0.586601
vt 0.625000 0.232342
vt 0.625000 0.518594
vt 0.625000 0.432337
vt 0.625000 0.392965
vt 0.625000 0.857035
vt 0.389696 1.000000
vt 0.303296 0.750000
vt 0.692663 0.750000
vt 0.385376 0.780306
vt 0.385376 0.760055
vt 0.375000 0.774836
vt 0.377021 0.750000
vt 0.393063 0.737536
vt 0.612907 0.762093
vt 0.625000 0.751450
vt 0.401110 0.989983
vt 0.385376 0.990122
vt 0.399836 1.000000
vt 0.625000 0.530248
vt 0.385376 0.967176
vt 0.375000 0.233738
vt 0.610903 0.518463
vt 0.125000 0.516262
vt 0.393063 0.512464
vt 0.611488 0.762081
vt 0.587296 0.750000
vt 0.599665 0.761975
vt 0.411602 0.750000
vt 0.408226 0.760260
vt 0.385376 0.989624
vt 0.625000 0.761987
vt 0.625000 0.988013
vt 0.625000 0.792538
vt 0.625000 0.800445
vt 0.625000 0.936311
vt 0.625000 0.942815
vt 0.560909 0.064011
vt 0.560909 0.086067
vt 0.625000 0.064011
vt 0.560909 0.663946
vt 0.375000 0.686002
vt 0.560909 0.686002
vt 0.125000 0.685989
vt 0.375000 0.663946
vt 0.125000 0.663933
vt 0.625000 0.663946
vt 0.875000 0.685989
vt 0.875000 0.663933
vt 1.000000 1.000000
vt 0.968750 0.500000
vt 1.000000 0.500000
vt 0.968750 1.000000
vt 0.937500 0.500000
vt 0.937500 1.000000
vt 0.906250 0.500000
vt 0.906250 1.000000
vt 0.875000 0.500000
vt 0.875000 1.000000
vt 0.843750 0.500000
vt 0.843750 1.000000
vt 0.812500 0.500000
vt 0.812500 1.000000
vt 0.781250 0.500000
vt 0.781250 1.000000
vt 0.750000 0.500000
vt 0.750000 1.000000
vt 0.718750 0.500000
vt 0.718750 1.000000
vt 0.687500 0.500000
vt 0.687500 1.000000
vt 0.656250 0.500000
vt 0.656250 1.000000
vt 0.625000 0.500000
vt 0.593750 0.500000
vt 0.593750 1.000000
vt 0.562500 0.500000
vt 0.562500 1.000000
vt 0.531250 0.500000
vt 0.531250 1.000000
vt 0.500000 0.500000
vt 0.500000 1.000000
vt 0.468750 0.500000
vt 0.468750 1.000000
vt 0.437500 0.500000
vt 0.437500 1.000000
vt 0.406250 0.500000
vt 0.406250 1.000000
vt 0.375000 0.500000
vt 0.343750 0.500000
vt 0.343750 1.000000
vt 0.312500 0.500000
vt 0.312500 1.000000
vt 0.281250 0.500000
vt 0.281250 1.000000
vt 0.250000 0.500000
vt 0.250000 1.000000
vt 0.218750 0.500000
vt 0.218750 1.000000
vt 0.187500 0.500000
vt 0.187500 1.000000
vt 0.156250 0.500000
vt 0.156250 1.000000
vt 0.125000 1.000000
vt 0.093750 0.500000
vt 0.093750 1.000000
vt 0.062500 0.500000
vt 0.062500 1.000000
vt 0.031250 0.500000
vt 0.031250 1.000000
vt 0.000000 0.500000
vt 0.796822 0.014612
vt 0.514612 0.203178
vt 0.703178 0.485388
vt 0.296875 1.000000
vt 0.000000 1.000000
vt 0.180667 0.021440
vt 0.478560 0.180667
vt 0.319333 0.478560
vt 0.703125 1.000000
vt 0.265625 1.000000
vt 0.671875 1.000000
vt 0.234375 1.000000
vt 0.640625 1.000000
vt 0.203125 1.000000
vt 0.609375 1.000000
vt 0.171875 1.000000
vt 0.578125 1.000000
vt 0.984375 1.000000
vt 0.140625 1.000000
vt 0.546875 1.000000
vt 0.953125 1.000000
vt 0.109375 1.000000
vt 0.515625 1.000000
vt 0.921875 1.000000
vt 0.078125 1.000000
vt 0.484375 1.000000
vt 0.890625 1.000000
vt 0.046875 1.000000
vt 0.453125 1.000000
vt 0.859375 1.000000
vt 0.015625 1.000000
vt 0.421875 1.000000
vt 0.828125 1.000000
vt 0.390625 1.000000
vt 0.796875 1.000000
vt 0.359375 1.000000
vt 0.765625 1.000000
vt 0.328125 1.000000
vt 0.734375 1.000000
vt 0.875000 0.750000
vt 0.625000 0.250000
vt 0.625000 0.792538
vt 0.625000 0.942815
vt 0.625000 0.936311
vt 0.625000 0.792538
vt 0.375000 0.064011
vt 0.375000 0.086067
vt 0.625000 0.086067
vt 0.625000 0.686002
vt 0.750000 0.490000
vt 0.796822 0.485388
vt 0.841844 0.471731
vt 0.883337 0.449553
vt 0.919706 0.419706
vt 0.949553 0.383337
vt 0.971731 0.341844
vt 0.985388 0.296822
vt 0.990000 0.250000
vt 0.985388 0.203178
vt 0.971731 0.158156
vt 0.949553 0.116663
vt 0.919706 0.080294
vt 0.883337 0.050447
vt 0.841844 0.028269
vt 0.750000 0.010000
vt 0.703178 0.014612
vt 0.658156 0.028269
vt 0.616663 0.050447
vt 0.580294 0.080294
vt 0.550447 0.116663
vt 0.528269 0.158156
vt 0.510000 0.250000
vt 0.514612 0.296822
vt 0.528269 0.341844
vt 0.550447 0.383337
vt 0.580294 0.419706
vt 0.616663 0.449553
vt 0.658156 0.471731
vt 0.296822 0.485388
vt 0.273411 0.487694
vt 0.250000 0.490000
vt 0.226589 0.487694
vt 0.203178 0.485388
vt 0.180667 0.478560
vt 0.158156 0.471731
vt 0.137410 0.460642
vt 0.116663 0.449553
vt 0.098479 0.434629
vt 0.080294 0.419706
vt 0.065371 0.401521
vt 0.050447 0.383337
vt 0.039358 0.362590
vt 0.028269 0.341844
vt 0.021440 0.319333
vt 0.014612 0.296822
vt 0.012306 0.273411
vt 0.010000 0.250000
vt 0.012306 0.226589
vt 0.014612 0.203178
vt 0.021440 0.180667
vt 0.028269 0.158156
vt 0.039358 0.137410
vt 0.050447 0.116663
vt 0.065371 0.098479
vt 0.080294 0.080294
vt 0.098479 0.065371
vt 0.116663 0.050447
vt 0.137410 0.039358
vt 0.158156 0.028269
vt 0.203178 0.014612
vt 0.226589 0.012306
vt 0.250000 0.010000
vt 0.273411 0.012306
vt 0.296822 0.014612
vt 0.319333 0.021440
vt 0.341844 0.028269
vt 0.362590 0.039358
vt 0.383337 0.050447
vt 0.401521 0.065371
vt 0.419706 0.080294
vt 0.434629 0.098479
vt 0.449553 0.116663
vt 0.460642 0.137410
vt 0.471731 0.158156
vt 0.485388 0.203178
vt 0.487694 0.226589
vt 0.490000 0.250000
vt 0.487694 0.273411
vt 0.485388 0.296822
vt 0.478560 0.319333
vt 0.471731 0.341844
vt 0.460642 0.362590
vt 0.449553 0.383337
vt 0.434629 0.401521
vt 0.419706 0.419706
vt 0.401521 0.434629
vt 0.383337 0.449553
vt 0.362590 0.460642
vt 0.341844 0.471731
s 0
usemtl 
f 1/1/1 39/2/1 2/3/1
f 15/4/2 10/5/2 9/6/2
f 8/7/2 18/8/2 16/9/2
f 9/6/3 1/10/3 8/7/3
f 2/11/4 33/12/4 1/13/4
f 11/1/5 41/14/5 12/15/5
f 14/6/6 38/16/6 20/17/6
f 11/10/7 14/6/7 13/7/7
f 11/13/8 31/18/8 30/19/8
f 4/20/7 95/21/7 42/21/7
f 9/6/9 93/6/9 14/6/9
f 3/1/10 24/22/10 23/23/10
f 21/24/11 6/25/11 18/26/11
f 19/27/7 17/28/7 16/29/7
f 3/13/8 18/30/8 6/31/8
f 15/32/4 20/33/4 22/34/4
f 39/2/1 5/15/1 4/35/1
f 18/8/2 28/36/2 25/37/2
f 9/6/2 8/7/2 17/38/2
f 8/7/2 16/9/2 17/38/2
f 29/39/2 15/4/2 26/40/2
f 9/6/2 17/38/2 15/4/2
f 7/41/2 18/8/2 8/7/2
f 9/6/3 5/20/3 1/10/3
f 33/12/4 8/7/4 1/13/4
f 41/14/5 45/42/5 12/15/5
f 20/17/6 19/43/6 13/7/6
f 22/44/6 37/45/6 35/46/6
f 21/47/6 35/46/6 34/48/6
f 20/17/6 13/7/6 14/6/6
f 20/17/6 37/45/6 22/44/6
f 11/10/7 12/20/7 14/6/7
f 32/49/8 21/47/8 34/48/8
f 11/13/8 13/7/8 23/50/8
f 13/7/8 19/43/8 23/50/8
f 24/51/8 32/49/8 31/18/8
f 11/13/8 23/50/8 24/51/8
f 42/52/12 97/15/12 12/15/12
f 14/6/6 98/53/6 44/53/6
f 3/1/10 6/25/10 24/22/10
f 21/24/11 24/22/11 6/25/11
f 18/26/11 15/54/11 21/24/11
f 15/54/11 22/55/11 21/24/11
f 19/27/7 20/56/7 17/28/7
f 16/29/7 3/10/7 19/27/7
f 3/10/7 23/57/7 19/27/7
f 3/13/8 16/58/8 18/30/8
f 15/32/4 17/59/4 20/33/4
f 32/60/13 34/61/13 33/62/13
f 7/7/14 25/63/14 27/64/14
f 38/65/13 43/66/13 10/6/13
f 41/67/13 40/68/13 39/69/13
f 46/1/15 84/2/15 47/3/15
f 60/4/16 55/5/16 54/6/16
f 53/7/16 63/8/16 61/9/16
f 54/6/17 46/10/17 53/7/17
f 47/11/4 78/12/4 46/13/4
f 56/1/18 86/14/18 57/15/18
f 59/6/19 83/16/19 65/17/19
f 56/10/20 59/6/20 58/7/20
f 56/13/8 76/18/8 75/19/8
f 49/35/8 50/15/8 87/52/8
f 55/5/8 59/6/8 54/6/8
f 54/6/8 57/20/8 50/20/8
f 48/1/21 69/22/21 68/23/21
f 66/24/22 51/25/22 63/26/22
f 64/27/20 62/28/20 61/29/20
f 48/13/8 63/30/8 51/31/8
f 60/32/4 65/33/4 67/34/4
f 84/2/15 50/15/15 49/35/15
f 63/8/16 73/36/16 70/37/16
f 54/6/16 53/7/16 62/38/16
f 53/7/16 61/9/16 62/38/16
f 74/39/16 60/4/16 71/40/16
f 54/6/16 62/38/16 60/4/16
f 52/41/16 63/8/16 53/7/16
f 54/6/17 50/20/17 46/10/17
f 78/12/4 53/7/4 46/13/4
f 86/14/18 90/42/18 57/15/18
f 65/17/19 64/43/19 58/7/19
f 67/44/19 82/45/19 80/46/19
f 66/47/19 80/46/19 79/48/19
f 65/17/19 58/7/19 59/6/19
f 65/17/19 82/45/19 67/44/19
f 56/10/20 57/20/20 59/6/20
f 77/49/8 66/47/8 79/48/8
f 56/13/8 58/7/8 68/50/8
f 58/7/8 64/43/8 68/50/8
f 69/51/8 77/49/8 76/18/8
f 56/13/8 68/50/8 69/51/8
f 57/15/8 87/52/8 50/15/8
f 89/53/8 59/6/8 88/70/8
f 54/6/8 59/6/8 57/20/8
f 48/1/21 51/25/21 69/22/21
f 66/24/22 69/22/22 51/25/22
f 63/26/22 60/54/22 66/24/22
f 60/54/22 67/55/22 66/24/22
f 64/27/20 65/56/20 62/28/20
f 61/29/20 48/10/20 64/27/20
f 48/10/20 68/57/20 64/27/20
f 48/13/8 61/58/8 63/30/8
f 60/32/4 62/59/4 65/33/4
f 76/71/23 77/60/23 78/62/23
f 52/7/24 70/63/24 72/64/24
f 83/65/23 88/66/23 55/6/23
f 86/67/23 85/68/23 84/69/23
f 1/1/1 5/15/1 39/2/1
f 15/4/2 29/39/2 10/5/2
f 11/1/5 40/72/5 41/14/5
f 44/53/6 38/16/6 14/6/6
f 38/16/6 36/73/6 20/17/6
f 30/19/8 40/74/8 11/13/8
f 11/13/8 24/51/8 31/18/8
f 10/5/8 43/70/8 14/6/8
f 28/36/2 27/75/2 25/37/2
f 25/37/2 26/40/2 18/8/2
f 26/40/2 15/4/2 18/8/2
f 7/41/2 28/36/2 18/8/2
f 33/12/4 7/41/4 8/7/4
f 21/47/6 22/44/6 35/46/6
f 20/17/6 36/73/6 37/45/6
f 32/49/8 24/51/8 21/47/8
f 12/15/8 45/42/8 42/52/8
f 36/76/13 38/65/13 10/6/13
f 36/76/13 10/6/13 29/77/13
f 37/78/13 36/76/13 29/77/13
f 26/79/13 25/63/13 34/61/13
f 25/63/13 7/7/13 34/61/13
f 37/78/13 29/77/13 35/80/13
f 29/77/13 26/79/13 35/80/13
f 33/62/13 2/10/13 31/71/13
f 2/10/13 30/81/13 31/71/13
f 35/80/13 26/79/13 34/61/13
f 7/7/13 33/62/13 34/61/13
f 33/62/13 31/71/13 32/60/13
f 38/65/13 44/82/13 43/66/13
f 40/68/13 30/81/13 2/10/13
f 39/69/13 4/20/13 41/67/13
f 4/20/13 42/21/13 41/67/13
f 40/68/13 2/10/13 39/69/13
f 42/21/13 45/83/13 41/67/13
f 46/1/15 50/15/15 84/2/15
f 60/4/16 74/39/16 55/5/16
f 56/1/18 85/72/18 86/14/18
f 89/53/19 83/16/19 59/6/19
f 83/16/19 81/73/19 65/17/19
f 75/19/8 85/74/8 56/13/8
f 56/13/8 69/51/8 76/18/8
f 55/5/8 88/70/8 59/6/8
f 73/36/16 72/75/16 70/37/16
f 70/37/16 71/40/16 63/8/16
f 71/40/16 60/4/16 63/8/16
f 52/41/16 73/36/16 63/8/16
f 78/12/4 52/41/4 53/7/4
f 66/47/19 67/44/19 80/46/19
f 65/17/19 81/73/19 82/45/19
f 77/49/8 69/51/8 66/47/8
f 57/15/8 90/42/8 87/52/8
f 81/76/23 83/65/23 55/6/23
f 81/76/23 55/6/23 74/77/23
f 79/61/23 80/80/23 71/79/23
f 80/80/23 82/78/23 74/77/23
f 71/79/23 80/80/23 74/77/23
f 82/78/23 81/76/23 74/77/23
f 71/79/23 70/63/23 79/61/23
f 70/63/23 52/7/23 79/61/23
f 52/7/23 78/62/23 79/61/23
f 78/62/23 47/10/23 76/71/23
f 79/61/23 78/62/23 77/60/23
f 47/10/23 75/81/23 76/71/23
f 83/65/23 89/82/23 88/66/23
f 85/68/23 75/81/23 47/10/23
f 84/69/23 49/20/23 86/67/23
f 49/20/23 87/21/23 86/67/23
f 85/68/23 47/10/23 84/69/23
f 87/21/23 90/83/23 86/67/23
f 44/82/7 96/66/7 43/66/7
f 14/6/7 12/20/7 110/84/7
f 94/15/25 106/15/25 97/15/25
f 94/15/6 108/35/6 99/35/6
f 100/6/11 103/20/11 114/85/11
f 98/82/7 105/66/7 96/66/7
f 93/6/26 100/6/26 91/6/26
f 97/15/27 103/15/27 94/15/27
f 14/6/26 91/6/26 9/6/26
f 5/15/6 99/35/6 4/35/6
f 5/20/11 9/6/11 117/86/11
f 5/15/25 97/15/25 12/15/25
f 10/5/5 91/6/5 9/6/5
f 12/15/27 94/15/27 5/15/27
f 14/6/28 92/5/28 10/5/28
f 43/70/29 93/6/29 14/6/29
f 108/35/8 103/15/8 104/52/8
f 101/5/8 102/6/8 100/6/8
f 106/15/8 104/52/8 103/15/8
f 107/53/8 102/6/8 105/70/8
f 100/6/8 106/20/8 103/20/8
f 100/6/8 102/6/8 106/20/8
f 99/20/7 104/21/7 95/21/7
f 92/5/5 100/6/5 91/6/5
f 106/20/7 102/6/7 119/87/7
f 93/6/6 107/53/6 98/53/6
f 91/6/9 102/6/9 93/6/9
f 93/6/28 101/5/28 92/5/28
f 95/52/12 106/15/12 97/15/12
f 96/70/29 102/6/29 93/6/29
f 112/88/18 115/89/18 120/90/18
f 113/91/19 109/92/19 111/93/19
f 110/94/8 117/95/8 118/96/8
f 116/97/4 120/98/4 114/99/4
f 122/100/30 123/101/30 121/102/30
f 124/103/31 125/104/31 123/101/31
f 126/105/32 127/106/32 125/104/32
f 128/107/33 129/108/33 127/106/33
f 130/109/34 131/110/34 129/108/34
f 132/111/35 133/112/35 131/110/35
f 134/113/36 135/114/36 133/112/36
f 136/115/37 137/116/37 135/114/37
f 138/117/38 139/118/38 137/116/38
f 140/119/39 141/120/39 139/118/39
f 142/121/40 143/122/40 141/120/40
f 144/123/41 145/124/41 143/122/41
f 146/20/42 147/125/42 145/124/42
f 148/126/43 149/127/43 147/125/43
f 150/128/44 151/129/44 149/127/44
f 152/130/45 153/131/45 151/129/45
f 154/132/46 155/133/46 153/131/46
f 156/134/47 157/135/47 155/133/47
f 158/136/48 159/137/48 157/135/48
f 160/138/49 161/139/49 159/137/49
f 162/10/50 163/140/50 161/139/50
f 164/141/51 165/142/51 163/140/51
f 166/143/52 167/144/52 165/142/52
f 168/145/53 169/146/53 167/144/53
f 170/147/54 171/148/54 169/146/54
f 172/149/55 173/150/55 171/148/55
f 174/151/56 175/152/56 173/150/56
f 176/153/57 177/31/57 175/152/57
f 178/154/58 179/155/58 177/31/58
f 180/156/59 181/157/59 179/155/59
f 128/107/33 189/109/33 130/109/33
f 182/158/60 183/159/60 181/157/60
f 184/160/61 121/161/61 183/159/61
f 151/162/4 167/163/4 183/164/4
f 207/143/52 271/165/52 240/145/52
f 146/20/42 198/126/42 148/126/42
f 164/141/51 207/143/51 166/143/51
f 182/158/60 216/160/60 184/160/60
f 138/117/38 194/119/38 140/119/38
f 156/134/47 203/136/47 158/136/47
f 174/151/56 212/153/56 176/153/56
f 130/109/34 190/111/34 132/111/34
f 148/126/43 199/128/43 150/128/43
f 166/143/52 208/145/52 168/145/52
f 122/100/30 185/103/30 124/103/30
f 184/160/61 186/166/61 122/166/61
f 140/119/39 195/121/39 142/121/39
f 158/136/48 204/138/48 160/138/48
f 176/153/57 213/154/57 178/154/57
f 132/111/35 191/113/35 134/113/35
f 150/128/44 200/130/44 152/130/44
f 168/145/53 209/147/53 170/147/53
f 124/103/31 187/105/31 126/105/31
f 142/121/40 196/123/40 144/123/40
f 160/138/49 205/10/49 162/10/49
f 178/154/58 214/156/58 180/156/58
f 134/113/36 192/115/36 136/115/36
f 152/130/45 201/132/45 154/132/45
f 170/147/54 210/149/54 172/149/54
f 126/105/32 188/107/32 128/107/32
f 144/123/41 197/20/41 146/20/41
f 162/10/50 206/141/50 164/141/50
f 180/156/59 215/158/59 182/158/59
f 136/115/37 193/117/37 138/117/37
f 154/132/46 202/134/46 156/134/46
f 172/149/55 211/151/55 174/151/55
f 266/167/8 258/168/8 250/169/8
f 194/119/39 258/170/39 227/121/39
f 208/145/53 272/171/53 241/147/53
f 195/121/40 259/172/40 228/123/40
f 209/147/54 273/173/54 242/149/54
f 196/123/41 260/174/41 229/20/41
f 210/149/55 274/175/55 243/151/55
f 197/20/42 261/176/42 230/126/42
f 211/151/56 275/177/56 244/153/56
f 198/126/43 262/178/43 231/128/43
f 186/100/30 249/179/30 217/103/30
f 212/153/57 276/180/57 245/154/57
f 199/128/44 263/181/44 232/130/44
f 185/103/31 250/182/31 219/105/31
f 213/154/58 277/183/58 246/156/58
f 200/130/45 264/184/45 233/132/45
f 187/105/32 251/185/32 220/107/32
f 214/156/59 278/186/59 247/158/59
f 201/132/46 265/187/46 234/134/46
f 188/107/33 252/188/33 221/109/33
f 215/158/60 279/189/60 248/160/60
f 202/134/47 266/190/47 235/136/47
f 189/109/34 253/191/34 222/111/34
f 216/160/61 280/192/61 218/166/61
f 203/136/48 267/193/48 236/138/48
f 190/111/35 254/194/35 223/113/35
f 204/138/49 268/195/49 237/10/49
f 191/113/36 255/196/36 224/115/36
f 205/10/50 269/197/50 238/141/50
f 192/115/37 256/198/37 225/117/37
f 206/141/51 270/199/51 239/143/51
f 193/117/38 257/200/38 226/119/38
f 282/15/62 283/25/62 281/1/62
f 283/25/19 288/124/19 287/139/19
f 288/124/63 285/7/63 287/139/63
f 286/6/18 281/10/18 285/7/18
f 287/139/64 281/13/64 283/31/64
f 288/124/65 282/201/65 286/6/65
f 290/15/62 291/25/62 289/1/62
f 292/202/19 295/139/19 291/25/19
f 296/124/63 293/7/63 295/139/63
f 293/7/18 290/20/18 289/10/18
f 295/139/64 289/13/64 291/31/64
f 292/108/65 294/6/65 296/124/65
f 298/15/62 299/25/62 297/1/62
f 300/202/19 303/139/19 299/25/19
f 304/124/63 301/7/63 303/139/63
f 301/7/18 298/20/18 297/10/18
f 299/31/64 301/7/64 297/13/64
f 300/108/65 302/6/65 304/124/65
f 306/15/62 307/25/62 305/1/62
f 308/202/19 311/139/19 307/25/19
f 312/124/63 309/7/63 311/139/63
f 310/6/18 305/10/18 309/7/18
f 311/139/64 305/13/64 307/31/64
f 308/108/65 310/6/65 312/124/65
f 314/15/62 315/25/62 313/1/62
f 316/202/19 319/139/19 315/25/19
f 320/124/63 317/7/63 319/139/63
f 318/6/18 313/10/18 317/7/18
f 319/139/64 313/13/64 315/31/64
f 316/108/65 318/6/65 320/124/65
f 322/15/62 323/25/62 321/1/62
f 324/202/19 327/139/19 323/25/19
f 328/124/63 325/7/63 327/139/63
f 325/7/18 322/20/18 321/10/18
f 327/139/64 321/13/64 323/31/64
f 324/108/65 326/6/65 328/124/65
f 4/20/7 99/20/7 95/21/7
f 9/6/9 91/6/9 93/6/9
f 42/52/12 95/52/12 97/15/12
f 14/6/6 93/6/6 98/53/6
f 44/82/7 98/82/7 96/66/7
f 110/84/7 112/203/7 93/6/7
f 12/20/7 97/20/7 111/87/7
f 12/20/7 111/87/7 109/204/7
f 110/84/7 93/6/7 14/6/7
f 12/20/7 109/204/7 110/84/7
f 94/15/25 103/15/25 106/15/25
f 94/15/6 103/15/6 108/35/6
f 115/85/11 91/6/11 100/6/11
f 103/20/11 94/20/11 113/86/11
f 103/20/11 113/86/11 116/205/11
f 114/85/11 115/85/11 100/6/11
f 103/20/11 116/205/11 114/85/11
f 98/82/7 107/82/7 105/66/7
f 93/6/26 102/6/26 100/6/26
f 97/15/27 106/15/27 103/15/27
f 14/6/26 93/6/26 91/6/26
f 5/15/6 94/15/6 99/35/6
f 113/86/11 94/20/11 5/20/11
f 9/6/11 91/6/11 115/85/11
f 9/6/11 115/85/11 118/85/11
f 117/86/11 113/86/11 5/20/11
f 9/6/11 118/85/11 117/86/11
f 5/15/25 94/15/25 97/15/25
f 10/5/5 92/5/5 91/6/5
f 12/15/27 97/15/27 94/15/27
f 14/6/28 93/6/28 92/5/28
f 43/70/29 96/70/29 93/6/29
f 99/20/7 108/20/7 104/21/7
f 92/5/5 101/5/5 100/6/5
f 119/87/7 111/87/7 97/20/7
f 102/6/7 93/6/7 112/203/7
f 102/6/7 112/203/7 120/206/7
f 119/87/7 97/20/7 106/20/7
f 102/6/7 120/206/7 119/87/7
f 93/6/6 102/6/6 107/53/6
f 91/6/9 100/6/9 102/6/9
f 93/6/28 102/6/28 101/5/28
f 95/52/12 104/52/12 106/15/12
f 96/70/29 105/70/29 102/6/29
f 112/88/18 110/207/18 118/208/18
f 115/89/18 114/209/18 120/90/18
f 112/88/18 118/208/18 115/89/18
f 119/210/19 116/97/19 113/91/19
f 113/91/19 117/95/19 109/92/19
f 111/93/19 119/210/19 113/91/19
f 110/94/8 109/92/8 117/95/8
f 116/97/4 119/210/4 120/98/4
f 122/100/30 124/103/30 123/101/30
f 124/103/31 126/105/31 125/104/31
f 126/105/32 128/107/32 127/106/32
f 128/107/33 130/109/33 129/108/33
f 130/109/34 132/111/34 131/110/34
f 132/111/35 134/113/35 133/112/35
f 134/113/36 136/115/36 135/114/36
f 136/115/37 138/117/37 137/116/37
f 138/117/38 140/119/38 139/118/38
f 140/119/39 142/121/39 141/120/39
f 142/121/40 144/123/40 143/122/40
f 144/123/41 146/20/41 145/124/41
f 146/20/42 148/126/42 147/125/42
f 148/126/43 150/128/43 149/127/43
f 150/128/44 152/130/44 151/129/44
f 152/130/45 154/132/45 153/131/45
f 154/132/46 156/134/46 155/133/46
f 156/134/47 158/136/47 157/135/47
f 158/136/48 160/138/48 159/137/48
f 160/138/49 162/10/49 161/139/49
f 162/10/50 164/141/50 163/140/50
f 164/141/51 166/143/51 165/142/51
f 166/143/52 168/145/52 167/144/52
f 168/145/53 170/147/53 169/146/53
f 170/147/54 172/149/54 171/148/54
f 172/149/55 174/151/55 173/150/55
f 174/151/56 176/153/56 175/152/56
f 176/153/57 178/154/57 177/31/57
f 178/154/58 180/156/58 179/155/58
f 180/156/59 182/158/59 181/157/59
f 128/107/33 188/107/33 189/109/33
f 182/158/60 184/160/60 183/159/60
f 184/160/61 122/166/61 121/161/61
f 183/164/4 121/211/4 123/212/4
f 123/212/4 125/213/4 127/214/4
f 127/214/4 129/215/4 131/216/4
f 131/216/4 133/217/4 135/218/4
f 135/218/4 137/219/4 139/220/4
f 139/220/4 141/221/4 143/222/4
f 143/222/4 145/223/4 147/224/4
f 147/224/4 149/225/4 151/162/4
f 151/162/4 153/226/4 155/227/4
f 155/227/4 157/228/4 159/229/4
f 159/229/4 161/230/4 163/231/4
f 163/231/4 165/232/4 167/163/4
f 167/163/4 169/233/4 171/234/4
f 171/234/4 173/235/4 175/236/4
f 175/236/4 177/237/4 179/238/4
f 179/238/4 181/239/4 183/164/4
f 183/164/4 123/212/4 127/214/4
f 127/214/4 131/216/4 135/218/4
f 135/218/4 139/220/4 143/222/4
f 143/222/4 147/224/4 151/162/4
f 151/162/4 155/227/4 159/229/4
f 159/229/4 163/231/4 167/163/4
f 167/163/4 171/234/4 175/236/4
f 175/236/4 179/238/4 183/164/4
f 183/164/4 127/214/4 135/218/4
f 135/218/4 143/222/4 151/162/4
f 151/162/4 159/229/4 167/163/4
f 167/163/4 175/236/4 183/164/4
f 183/164/4 135/218/4 151/162/4
f 240/145/52 208/145/52 207/143/52
f 207/143/52 239/143/52 271/165/52
f 146/20/42 197/20/42 198/126/42
f 164/141/51 206/141/51 207/143/51
f 182/158/60 215/158/60 216/160/60
f 138/117/38 193/117/38 194/119/38
f 156/134/47 202/134/47 203/136/47
f 174/151/56 211/151/56 212/153/56
f 130/109/34 189/109/34 190/111/34
f 148/126/43 198/126/43 199/128/43
f 166/143/52 207/143/52 208/145/52
f 122/100/30 186/100/30 185/103/30
f 184/160/61 216/160/61 186/166/61
f 140/119/39 194/119/39 195/121/39
f 158/136/48 203/136/48 204/138/48
f 176/153/57 212/153/57 213/154/57
f 132/111/35 190/111/35 191/113/35
f 150/128/44 199/128/44 200/130/44
f 168/145/53 208/145/53 209/147/53
f 124/103/31 185/103/31 187/105/31
f 142/121/40 195/121/40 196/123/40
f 160/138/49 204/138/49 205/10/49
f 178/154/58 213/154/58 214/156/58
f 134/113/36 191/113/36 192/115/36
f 152/130/45 200/130/45 201/132/45
f 170/147/54 209/147/54 210/149/54
f 126/105/32 187/105/32 188/107/32
f 144/123/41 196/123/41 197/20/41
f 162/10/50 205/10/50 206/141/50
f 180/156/59 214/156/59 215/158/59
f 136/115/37 192/115/37 193/117/37
f 154/132/46 201/132/46 202/134/46
f 172/149/55 210/149/55 211/151/55
f 250/169/8 217/240/8 249/241/8
f 249/241/8 218/242/8 280/243/8
f 280/243/8 248/244/8 279/245/8
f 279/245/8 247/246/8 278/247/8
f 278/247/8 246/248/8 277/249/8
f 277/249/8 245/250/8 276/251/8
f 276/251/8 244/252/8 275/253/8
f 275/253/8 243/254/8 274/255/8
f 274/255/8 242/256/8 273/257/8
f 273/257/8 241/258/8 272/259/8
f 272/259/8 240/260/8 271/261/8
f 271/261/8 239/262/8 270/263/8
f 270/263/8 238/264/8 269/265/8
f 269/265/8 237/266/8 268/267/8
f 268/267/8 236/268/8 267/269/8
f 267/269/8 235/270/8 266/167/8
f 266/167/8 234/271/8 265/272/8
f 265/272/8 233/273/8 264/274/8
f 264/274/8 232/275/8 263/276/8
f 263/276/8 231/277/8 262/278/8
f 262/278/8 230/279/8 261/280/8
f 261/280/8 229/281/8 260/282/8
f 260/282/8 228/283/8 259/284/8
f 259/284/8 227/285/8 258/168/8
f 258/168/8 226/286/8 257/287/8
f 257/287/8 225/288/8 256/289/8
f 256/289/8 224/290/8 255/291/8
f 255/291/8 223/292/8 254/293/8
f 254/293/8 222/294/8 253/295/8
f 253/295/8 221/296/8 252/297/8
f 252/297/8 220/298/8 251/299/8
f 251/299/8 219/300/8 250/169/8
f 250/169/8 249/241/8 280/243/8
f 280/243/8 279/245/8 278/247/8
f 278/247/8 277/249/8 276/251/8
f 276/251/8 275/253/8 274/255/8
f 274/255/8 273/257/8 272/259/8
f 272/259/8 271/261/8 270/263/8
f 270/263/8 269/265/8 268/267/8
f 268/267/8 267/269/8 266/167/8
f 266/167/8 265/272/8 264/274/8
f 264/274/8 263/276/8 262/278/8
f 262/278/8 261/280/8 260/282/8
f 260/282/8 259/284/8 258/168/8
f 258/168/8 257/287/8 256/289/8
f 256/289/8 255/291/8 254/293/8
f 254/293/8 253/295/8 252/297/8
f 252/297/8 251/299/8 250/169/8
f 250/169/8 280/243/8 278/247/8
f 278/247/8 276/251/8 274/255/8
f 274/255/8 272/259/8 270/263/8
f 270/263/8 268/267/8 266/167/8
f 266/167/8 264/274/8 262/278/8
f 262/278/8 260/282/8 258/168/8
f 258/168/8 256/289/8 254/293/8
f 254/293/8 252/297/8 250/169/8
f 250/169/8 278/247/8 274/255/8
f 274/255/8 270/263/8 266/167/8
f 266/167/8 262/278/8 258/168/8
f 258/168/8 254/293/8 250/169/8
f 250/169/8 274/255/8 266/167/8
f 227/121/39 195/121/39 194/119/39
f 194/119/39 226/119/39 258/170/39
f 241/147/53 209/147/53 208/145/53
f 208/145/53 240/145/53 272/171/53
f 228/123/40 196/123/40 195/121/40
f 195/121/40 227/121/40 259/172/40
f 242/149/54 210/149/54 209/147/54
f 209/147/54 241/147/54 273/173/54
f 229/20/41 197/20/41 196/123/41
f 196/123/41 228/123/41 260/174/41
f 243/151/55 211/151/55 210/149/55
f 210/149/55 242/149/55 274/175/55
f 230/126/42 198/126/42 197/20/42
f 197/20/42 229/20/42 261/176/42
f 244/153/56 212/153/56 211/151/56
f 211/151/56 243/151/56 275/177/56
f 231/128/43 199/128/43 198/126/43
f 198/126/43 230/126/43 262/178/43
f 217/103/30 185/103/30 186/100/30
f 186/100/30 218/100/30 249/179/30
f 245/154/57 213/154/57 212/153/57
f 212/153/57 244/153/57 276/180/57
f 232/130/44 200/130/44 199/128/44
f 199/128/44 231/128/44 263/181/44
f 219/105/31 187/105/31 185/103/31
f 185/103/31 217/103/31 250/182/31
f 246/156/58 214/156/58 213/154/58
f 213/154/58 245/154/58 277/183/58
f 233/132/45 201/132/45 200/130/45
f 200/130/45 232/130/45 264/184/45
f 220/107/32 188/107/32 187/105/32
f 187/105/32 219/105/32 251/185/32
f 247/158/59 215/158/59 214/156/59
f 214/156/59 246/156/59 278/186/59
f 234/134/46 202/134/46 201/132/46
f 201/132/46 233/132/46 265/187/46
f 221/109/33 189/109/33 188/107/33
f 188/107/33 220/107/33 252/188/33
f 248/160/60 216/160/60 215/158/60
f 215/158/60 247/158/60 279/189/60
f 235/136/47 203/136/47 202/134/47
f 202/134/47 234/134/47 266/190/47
f 222/111/34 190/111/34 189/109/34
f 189/109/34 221/109/34 253/191/34
f 218/166/61 186/166/61 216/160/61
f 216/160/61 248/160/61 280/192/61
f 236/138/48 204/138/48 203/136/48
f 203/136/48 235/136/48 267/193/48
f 223/113/35 191/113/35 190/111/35
f 190/111/35 222/111/35 254/194/35
f 237/10/49 205/10/49 204/138/49
f 204/138/49 236/138/49 268/195/49
f 224/115/36 192/115/36 191/113/36
f 191/113/36 223/113/36 255/196/36
f 238/141/50 206/141/50 205/10/50
f 205/10/50 237/10/50 269/197/50
f 225/117/37 193/117/37 192/115/37
f 192/115/37 224/115/37 256/198/37
f 239/143/51 207/143/51 206/141/51
f 206/141/51 238/141/51 270/199/51
f 226/119/38 194/119/38 193/117/38
f 193/117/38 225/117/38 257/200/38
f 282/15/62 284/202/62 283/25/62
f 283/25/19 284/202/19 288/124/19
f 288/124/63 286/6/63 285/7/63
f 286/6/18 282/20/18 281/10/18
f 287/139/64 285/7/64 281/13/64
f 288/124/65 284/108/65 282/201/65
f 290/15/62 292/202/62 291/25/62
f 292/202/19 296/124/19 295/139/19
f 296/124/63 294/6/63 293/7/63
f 293/7/18 294/6/18 290/20/18
f 295/139/64 293/7/64 289/13/64
f 292/108/65 290/201/65 294/6/65
f 298/15/62 300/202/62 299/25/62
f 300/202/19 304/124/19 303/139/19
f 304/124/63 302/6/63 301/7/63
f 301/7/18 302/6/18 298/20/18
f 299/31/64 303/139/64 301/7/64
f 300/108/65 298/201/65 302/6/65
f 306/15/62 308/202/62 307/25/62
f 308/202/19 312/124/19 311/139/19
f 312/124/63 310/6/63 309/7/63
f 310/6/18 306/20/18 305/10/18
f 311/139/64 309/7/64 305/13/64
f 308/108/65 306/201/65 310/6/65
f 314/15/62 316/202/62 315/25/62
f 316/202/19 320/124/19 319/139/19
f 320/124/63 318/6/63 317/7/63
f 318/6/18 314/20/18 313/10/18
f 319/139/64 317/7/64 313/13/64
f 316/108/65 314/201/65 318/6/65
f 322/15/62 324/202/62 323/25/62
f 324/202/19 328/124/19 327/139/19
f 328/124/63 326/6/63 325/7/63
f 325/7/18 326/6/18 322/20/18
f 327/139/64 325/7/64 321/13/64
f 324/108/65 322/201/65 326/6/65
