# Blender 4.0.2
# www.blender.org
mtllib B3.mtl
o Cube.002
v 2.557715 -0.000314 -14.389701
v 2.557470 -0.000314 -9.782700
v -1.526729 0.056245 -12.555391
v 2.603284 4.911005 -9.828509
v 2.603529 4.911005 -14.435511
v -1.526806 0.056245 -11.109287
v -2.557688 -0.000314 -9.782972
v -2.557443 -0.000314 -14.389974
v -2.603252 4.911005 -14.435787
v -2.603498 4.911005 -9.828787
v 2.353865 0.203526 -14.185872
v 2.353865 4.911005 -14.185872
v -2.353614 0.203526 -14.186123
v -2.353614 4.911005 -14.186123
v -2.581516 2.561769 -11.109344
v -2.558068 0.056245 -12.555447
v -2.581439 2.561769 -12.555448
v -2.558145 0.056245 -11.109343
v -2.353701 0.203526 -12.555435
v -2.353701 2.561769 -12.555435
v -2.353778 0.203526 -11.109332
v -2.353778 2.561769 -11.109332
v -0.147298 0.203526 -12.555318
v -0.147375 0.203526 -11.109215
v -2.564423 0.718741 -9.268108
v -2.558086 0.039385 -9.274445
v -2.558059 0.039385 -9.783342
v -2.564395 0.718741 -9.789680
v -2.561012 0.354530 -9.528894
v -2.557775 0.007520 -9.528893
v -2.596589 4.170290 -9.821877
v 2.343269 0.203526 -9.784613
v 1.883966 0.203526 -9.784637
v -1.939519 0.203526 -9.784841
v -2.049531 -0.000314 -9.782946
v -2.353848 0.203526 -9.784863
v -2.353848 0.652424 -9.789050
v -2.353846 4.645559 -9.826298
v -2.353846 4.413282 -9.824131
v -2.353846 4.673429 -9.826557
v 2.562021 0.487593 -9.787251
v 2.353630 0.203526 -9.784613
v 2.353630 0.512628 -9.787496
v 2.371266 4.911005 -9.828522
v -2.573291 4.911005 -9.828785
v -2.353846 4.911005 -9.828773
v 2.353633 4.911005 -9.828523
v -2.557579 -0.000314 -5.763916
v -2.557579 -0.000314 -10.370917
v 1.526767 0.056245 -7.598444
v -2.603391 4.911005 -10.325106
v -2.603391 4.911005 -5.718104
v 1.526767 0.056245 -9.044547
v 2.557579 -0.000314 -10.370917
v 2.557579 -0.000314 -5.763916
v 2.603391 4.911005 -5.718104
v 2.603391 4.911005 -10.325106
v -2.353740 0.203526 -5.967756
v -2.353740 4.911005 -5.967756
v 2.353740 0.203526 -5.967755
v 2.353740 4.911005 -5.967755
v 2.581478 2.561769 -9.044547
v 2.558107 0.056245 -7.598444
v 2.581478 2.561769 -7.598444
v 2.558107 0.056245 -9.044547
v 2.353740 0.203526 -7.598444
v 2.353740 2.561769 -7.598444
v 2.353740 0.203526 -9.044547
v 2.353740 2.561769 -9.044547
v 0.147337 0.203526 -7.598444
v 0.147337 0.203526 -9.044547
v 2.564286 0.718741 -10.885781
v 2.557950 0.039385 -10.879445
v 2.557950 0.039385 -10.370547
v 2.564286 0.718741 -10.364210
v 2.560889 0.354530 -10.624996
v 2.557652 0.007520 -10.624996
v 2.596482 4.170290 -10.332015
v -2.343378 0.203526 -10.369016
v -1.884075 0.203526 -10.369016
v 1.939410 0.203526 -10.369016
v 2.049422 -0.000314 -10.370917
v 2.353739 0.203526 -10.369016
v 2.353739 0.652424 -10.364829
v 2.353740 4.645559 -10.327581
v 2.353740 4.413282 -10.329748
v 2.353740 4.673429 -10.327322
v -2.562130 0.487593 -10.366366
v -2.353740 0.203526 -10.369016
v -2.353739 0.512628 -10.366133
v -2.371373 4.911005 -10.325106
v 2.573185 4.911005 -10.325106
v 2.353739 4.911005 -10.325106
v -2.353740 4.911005 -10.325106
vn 1.0000 -0.0093 0.0001
vn -1.0000 -0.0093 -0.0001
vn 0.0001 -0.0093 -1.0000
vn -0.0000 -1.0000 -0.0000
vn -1.0000 -0.0000 -0.0001
vn 1.0000 -0.0000 0.0001
vn -0.0001 -0.0000 1.0000
vn -0.0000 1.0000 -0.0000
vn -0.1062 0.9943 -0.0000
vn 0.0001 -0.0000 -1.0000
vn -0.0001 0.0093 1.0000
vn 1.0000 0.0093 0.0001
vn -1.0000 -0.0093 -0.0000
vn 1.0000 -0.0093 -0.0000
vn -0.0000 -0.0093 1.0000
vn 1.0000 -0.0000 -0.0000
vn -1.0000 -0.0000 -0.0000
vn -0.0000 -0.0000 -1.0000
vn 0.1062 0.9943 -0.0000
vn -0.0000 -0.0000 1.0000
vn -0.0000 0.0093 -1.0000
vn -1.0000 0.0093 -0.0000
vt 0.375000 0.000000
vt 0.399836 0.225164
vt 0.375000 0.225164
vt 0.505417 0.589991
vt 0.625000 0.528798
vt 0.625000 0.750000
vt 0.375000 0.750000
vt 0.377879 0.589665
vt 0.377879 0.660335
vt 0.375000 1.000000
vt 0.125000 0.524836
vt 0.350164 0.524836
vt 0.125000 0.750000
vt 0.391415 0.233585
vt 0.625000 0.000000
vt 0.612383 0.518477
vt 0.500239 0.663399
vt 0.163699 0.516262
vt 0.125854 0.516262
vt 0.625000 0.221202
vt 0.625000 0.232342
vt 0.625000 1.000000
vt 0.389696 0.250000
vt 0.389696 0.000000
vt 0.389696 0.392965
vt 0.375000 0.250000
vt 0.375000 0.428296
vt 0.389696 0.857034
vt 0.625000 0.817663
vt 0.375000 0.821704
vt 0.303296 0.500000
vt 0.125000 0.500000
vt 0.692663 0.500000
vt 0.732034 0.750000
vt 0.732034 0.500000
vt 0.375399 0.512418
vt 0.377021 0.524858
vt 0.505417 0.660009
vt 0.587296 0.528374
vt 0.411602 0.525256
vt 0.375000 0.524836
vt 0.625000 0.231406
vt 0.375000 0.663399
vt 0.500239 0.586601
vt 0.598567 0.518348
vt 0.398840 0.516485
vt 0.375000 0.586601
vt 0.375000 0.516262
vt 0.366753 0.516262
vt 0.331082 0.663399
vt 0.331082 0.586601
vt 0.625000 0.518594
vt 0.625000 0.530248
vt 0.625000 0.432337
vt 0.625000 0.392965
vt 0.625000 0.857035
vt 0.389696 1.000000
vt 0.303296 0.750000
vt 0.692663 0.750000
vt 0.385376 0.780306
vt 0.385376 0.760055
vt 0.375000 0.774836
vt 0.377021 0.750000
vt 0.393063 0.737536
vt 0.612907 0.762093
vt 0.625000 0.751450
vt 0.401110 0.989983
vt 0.385376 0.990122
vt 0.399836 1.000000
vt 0.385376 0.967176
vt 0.375000 0.233738
vt 0.610903 0.518463
vt 0.125000 0.516262
vt 0.393063 0.512464
vt 0.611488 0.762081
vt 0.587296 0.750000
vt 0.599665 0.761975
vt 0.411602 0.750000
vt 0.408226 0.760260
vt 0.385376 0.989624
vt 0.625000 0.761987
vt 0.625000 0.988860
vt 0.625000 0.988013
s 0
usemtl 
f 1/1/1 41/2/1 2/3/1
f 15/4/2 10/5/2 9/6/2
f 8/7/2 18/8/2 16/9/2
f 9/6/3 1/10/3 8/7/3
f 2/11/4 35/12/4 1/13/4
f 11/1/5 43/14/5 12/15/5
f 14/6/6 40/16/6 20/17/6
f 11/10/7 14/6/7 13/7/7
f 11/13/8 33/18/8 32/19/8
f 4/20/8 5/15/8 44/21/8
f 10/5/8 14/6/8 9/6/8
f 9/6/8 12/22/8 5/22/8
f 41/2/1 5/15/1 4/20/1
f 18/8/2 30/36/2 27/37/2
f 9/6/2 8/7/2 17/38/2
f 8/7/2 16/9/2 17/38/2
f 31/39/2 15/4/2 28/40/2
f 9/6/2 17/38/2 15/4/2
f 7/41/2 18/8/2 8/7/2
f 9/6/3 5/22/3 1/10/3
f 35/12/4 8/7/4 1/13/4
f 43/14/5 47/42/5 12/15/5
f 20/17/6 19/43/6 13/7/6
f 22/44/6 39/45/6 37/46/6
f 21/47/6 37/46/6 36/48/6
f 20/17/6 13/7/6 14/6/6
f 20/17/6 39/45/6 22/44/6
f 11/10/7 12/22/7 14/6/7
f 34/49/8 21/47/8 36/48/8
f 11/13/8 13/7/8 23/50/8
f 13/7/8 19/43/8 23/50/8
f 24/51/8 34/49/8 33/18/8
f 11/13/8 23/50/8 24/51/8
f 12/15/8 44/21/8 5/15/8
f 46/52/8 14/6/8 45/53/8
f 9/6/8 14/6/8 12/22/8
f 34/60/11 36/61/11 35/62/11
f 7/7/12 27/63/12 29/64/12
f 40/65/11 45/66/11 10/6/11
f 43/67/11 42/68/11 41/69/11
f 48/1/13 88/2/13 49/3/13
f 62/4/14 57/5/14 56/6/14
f 55/7/14 65/8/14 63/9/14
f 56/6/15 48/10/15 55/7/15
f 49/11/4 82/12/4 48/13/4
f 58/1/16 90/14/16 59/15/16
f 61/6/17 87/16/17 67/17/17
f 58/10/18 61/6/18 60/7/18
f 58/13/8 80/18/8 79/19/8
f 51/20/8 52/15/8 91/21/8
f 57/5/8 61/6/8 56/6/8
f 56/6/8 59/22/8 52/22/8
f 88/2/13 52/15/13 51/20/13
f 65/8/14 77/36/14 74/37/14
f 56/6/14 55/7/14 64/38/14
f 55/7/14 63/9/14 64/38/14
f 78/39/14 62/4/14 75/40/14
f 56/6/14 64/38/14 62/4/14
f 54/41/14 65/8/14 55/7/14
f 56/6/15 52/22/15 48/10/15
f 82/12/4 55/7/4 48/13/4
f 90/14/16 94/42/16 59/15/16
f 67/17/17 66/43/17 60/7/17
f 69/44/17 86/45/17 84/46/17
f 68/47/17 84/46/17 83/48/17
f 67/17/17 60/7/17 61/6/17
f 67/17/17 86/45/17 69/44/17
f 58/10/18 59/22/18 61/6/18
f 81/49/8 68/47/8 83/48/8
f 58/13/8 60/7/8 70/50/8
f 60/7/8 66/43/8 70/50/8
f 71/51/8 81/49/8 80/18/8
f 58/13/8 70/50/8 71/51/8
f 59/15/8 91/21/8 52/15/8
f 93/52/8 61/6/8 92/53/8
f 56/6/8 61/6/8 59/22/8
f 80/70/21 81/60/21 82/62/21
f 54/7/22 74/63/22 76/64/22
f 87/65/21 92/66/21 57/6/21
f 90/67/21 89/68/21 88/69/21
f 1/1/1 5/15/1 41/2/1
f 15/4/2 31/39/2 10/5/2
f 11/1/5 42/71/5 43/14/5
f 46/52/6 40/16/6 14/6/6
f 40/16/6 38/72/6 20/17/6
f 32/19/8 42/73/8 11/13/8
f 11/13/8 24/51/8 33/18/8
f 10/5/8 45/53/8 14/6/8
f 30/36/2 29/74/2 27/37/2
f 27/37/2 28/40/2 18/8/2
f 28/40/2 15/4/2 18/8/2
f 7/41/2 30/36/2 18/8/2
f 35/12/4 7/41/4 8/7/4
f 21/47/6 22/44/6 37/46/6
f 20/17/6 38/72/6 39/45/6
f 34/49/8 24/51/8 21/47/8
f 12/15/8 47/42/8 44/21/8
f 38/75/11 40/65/11 10/6/11
f 38/75/11 10/6/11 31/76/11
f 39/77/11 38/75/11 31/76/11
f 28/78/11 27/63/11 36/61/11
f 27/63/11 7/7/11 36/61/11
f 39/77/11 31/76/11 37/79/11
f 31/76/11 28/78/11 37/79/11
f 35/62/11 2/10/11 33/70/11
f 2/10/11 32/80/11 33/70/11
f 37/79/11 28/78/11 36/61/11
f 7/7/11 35/62/11 36/61/11
f 35/62/11 33/70/11 34/60/11
f 40/65/11 46/81/11 45/66/11
f 42/68/11 32/80/11 2/10/11
f 41/69/11 4/22/11 43/67/11
f 4/22/11 44/82/11 43/67/11
f 42/68/11 2/10/11 41/69/11
f 44/82/11 47/83/11 43/67/11
f 48/1/13 52/15/13 88/2/13
f 62/4/14 78/39/14 57/5/14
f 58/1/16 89/71/16 90/14/16
f 93/52/17 87/16/17 61/6/17
f 87/16/17 85/72/17 67/17/17
f 79/19/8 89/73/8 58/13/8
f 58/13/8 71/51/8 80/18/8
f 57/5/8 92/53/8 61/6/8
f 77/36/14 76/74/14 74/37/14
f 74/37/14 75/40/14 65/8/14
f 75/40/14 62/4/14 65/8/14
f 54/41/14 77/36/14 65/8/14
f 82/12/4 54/41/4 55/7/4
f 68/47/17 69/44/17 84/46/17
f 67/17/17 85/72/17 86/45/17
f 81/49/8 71/51/8 68/47/8
f 59/15/8 94/42/8 91/21/8
f 85/75/21 87/65/21 57/6/21
f 85/75/21 57/6/21 78/76/21
f 83/61/21 84/79/21 75/78/21
f 84/79/21 86/77/21 78/76/21
f 75/78/21 84/79/21 78/76/21
f 86/77/21 85/75/21 78/76/21
f 75/78/21 74/63/21 83/61/21
f 74/63/21 54/7/21 83/61/21
f 54/7/21 82/62/21 83/61/21
f 82/62/21 49/10/21 80/70/21
f 83/61/21 82/62/21 81/60/21
f 49/10/21 79/80/21 80/70/21
f 87/65/21 93/81/21 92/66/21
f 89/68/21 79/80/21 49/10/21
f 88/69/21 51/22/21 90/67/21
f 51/22/21 91/82/21 90/67/21
f 89/68/21 49/10/21 88/69/21
f 91/82/21 94/83/21 90/67/21
usemtl 
f 3/1/9 24/23/9 23/24/9
f 21/25/10 6/26/10 18/27/10
f 19/28/7 17/29/7 16/30/7
f 3/13/8 18/31/8 6/32/8
f 15/33/4 20/34/4 22/35/4
f 3/1/9 6/26/9 24/23/9
f 21/25/10 24/23/10 6/26/10
f 18/27/10 15/54/10 21/25/10
f 15/54/10 22/55/10 21/25/10
f 19/28/7 20/56/7 17/29/7
f 16/30/7 3/10/7 19/28/7
f 3/10/7 23/57/7 19/28/7
f 3/13/8 16/58/8 18/31/8
f 15/33/4 17/59/4 20/34/4
f 50/1/19 71/23/19 70/24/19
f 68/25/20 53/26/20 65/27/20
f 66/28/18 64/29/18 63/30/18
f 50/13/8 65/31/8 53/32/8
f 62/33/4 67/34/4 69/35/4
f 50/1/19 53/26/19 71/23/19
f 68/25/20 71/23/20 53/26/20
f 65/27/20 62/54/20 68/25/20
f 62/54/20 69/55/20 68/25/20
f 66/28/18 67/56/18 64/29/18
f 63/30/18 50/10/18 66/28/18
f 50/10/18 70/57/18 66/28/18
f 50/13/8 63/58/8 65/31/8
f 62/33/4 64/59/4 67/34/4
